<mxfile host="app.diagrams.net" agent="Mozilla/5.0 (Macintosh; Intel Mac OS X 10_15_7) AppleWebKit/537.36 (KHTML, like Gecko) Chrome/134.0.0.0 Safari/537.36" version="26.2.4">
  <diagram name="Page-1" id="ozeIgzWFDe6OeYUgTMm6">
    <mxGraphModel dx="1687" dy="2122" grid="1" gridSize="10" guides="1" tooltips="1" connect="1" arrows="1" fold="1" page="1" pageScale="1" pageWidth="827" pageHeight="1169" math="0" shadow="0">
      <root>
        <mxCell id="0" />
        <mxCell id="1" parent="0" />
        <mxCell id="8uDb1hTrpz5iHz1FLqci-34" value="" style="rounded=1;whiteSpace=wrap;html=1;fillColor=none;strokeColor=#CC6600;dashed=1;strokeWidth=2;" parent="1" vertex="1">
          <mxGeometry x="870" y="-20" width="560" height="560" as="geometry" />
        </mxCell>
        <mxCell id="8uDb1hTrpz5iHz1FLqci-32" value="" style="rounded=1;whiteSpace=wrap;html=1;fillColor=none;strokeColor=#7EA6E0;dashed=1;strokeWidth=2;" parent="1" vertex="1">
          <mxGeometry x="200" y="-20" width="560" height="560" as="geometry" />
        </mxCell>
        <mxCell id="8uDb1hTrpz5iHz1FLqci-2" value="crm_sales_details" style="swimlane;fontStyle=0;childLayout=stackLayout;horizontal=1;startSize=30;horizontalStack=0;resizeParent=1;resizeParentMax=0;resizeLast=0;collapsible=1;marginBottom=0;whiteSpace=wrap;html=1;rounded=1;strokeColor=#6c8ebf;fillColor=#dae8fc;fontSize=14;" parent="1" vertex="1">
          <mxGeometry x="230" y="210" width="190" height="110" as="geometry" />
        </mxCell>
        <mxCell id="8uDb1hTrpz5iHz1FLqci-3" value="sls_prd_key" style="text;strokeColor=none;fillColor=none;align=left;verticalAlign=middle;spacingLeft=4;spacingRight=4;overflow=hidden;points=[[0,0.5],[1,0.5]];portConstraint=eastwest;rotatable=0;whiteSpace=wrap;html=1;fontSize=14;" parent="8uDb1hTrpz5iHz1FLqci-2" vertex="1">
          <mxGeometry y="30" width="190" height="30" as="geometry" />
        </mxCell>
        <mxCell id="8uDb1hTrpz5iHz1FLqci-13" value="sls_cst_id" style="text;strokeColor=none;fillColor=none;align=left;verticalAlign=middle;spacingLeft=4;spacingRight=4;overflow=hidden;points=[[0,0.5],[1,0.5]];portConstraint=eastwest;rotatable=0;whiteSpace=wrap;html=1;fontSize=14;" parent="8uDb1hTrpz5iHz1FLqci-2" vertex="1">
          <mxGeometry y="60" width="190" height="30" as="geometry" />
        </mxCell>
        <mxCell id="5jU7VtsfLBy8xXooyxDO-7" value="SALES" style="rounded=0;whiteSpace=wrap;html=1;fillColor=#e1d5e7;strokeColor=#9673a6;fontStyle=1" parent="8uDb1hTrpz5iHz1FLqci-2" vertex="1">
          <mxGeometry y="90" width="190" height="20" as="geometry" />
        </mxCell>
        <mxCell id="8uDb1hTrpz5iHz1FLqci-6" value="Transactional Records of Sales &amp;amp; Orders" style="rounded=0;whiteSpace=wrap;html=1;strokeColor=none;" parent="1" vertex="1">
          <mxGeometry x="243" y="179" width="164" height="30" as="geometry" />
        </mxCell>
        <mxCell id="8uDb1hTrpz5iHz1FLqci-7" value="crm_cust_info" style="swimlane;fontStyle=0;childLayout=stackLayout;horizontal=1;startSize=30;horizontalStack=0;resizeParent=1;resizeParentMax=0;resizeLast=0;collapsible=1;marginBottom=0;whiteSpace=wrap;html=1;rounded=1;strokeColor=#6c8ebf;fillColor=#dae8fc;fontSize=14;" parent="1" vertex="1">
          <mxGeometry x="541" y="360" width="190" height="110" as="geometry" />
        </mxCell>
        <mxCell id="8uDb1hTrpz5iHz1FLqci-8" value="cst_id" style="text;strokeColor=none;fillColor=none;align=left;verticalAlign=middle;spacingLeft=4;spacingRight=4;overflow=hidden;points=[[0,0.5],[1,0.5]];portConstraint=eastwest;rotatable=0;whiteSpace=wrap;html=1;fontSize=14;" parent="8uDb1hTrpz5iHz1FLqci-7" vertex="1">
          <mxGeometry y="30" width="190" height="30" as="geometry" />
        </mxCell>
        <mxCell id="8uDb1hTrpz5iHz1FLqci-16" value="cst_key" style="text;strokeColor=none;fillColor=none;align=left;verticalAlign=middle;spacingLeft=4;spacingRight=4;overflow=hidden;points=[[0,0.5],[1,0.5]];portConstraint=eastwest;rotatable=0;whiteSpace=wrap;html=1;fontSize=14;" parent="8uDb1hTrpz5iHz1FLqci-7" vertex="1">
          <mxGeometry y="60" width="190" height="30" as="geometry" />
        </mxCell>
        <mxCell id="5jU7VtsfLBy8xXooyxDO-4" value="CUSTOMER" style="rounded=0;whiteSpace=wrap;html=1;fillColor=#d5e8d4;strokeColor=#82b366;fontStyle=1" parent="8uDb1hTrpz5iHz1FLqci-7" vertex="1">
          <mxGeometry y="90" width="190" height="20" as="geometry" />
        </mxCell>
        <mxCell id="8uDb1hTrpz5iHz1FLqci-9" value="Customer Information" style="rounded=0;whiteSpace=wrap;html=1;strokeColor=none;" parent="1" vertex="1">
          <mxGeometry x="541" y="329" width="190" height="30" as="geometry" />
        </mxCell>
        <mxCell id="8uDb1hTrpz5iHz1FLqci-10" value="crm_prd_info" style="swimlane;fontStyle=0;childLayout=stackLayout;horizontal=1;startSize=30;horizontalStack=0;resizeParent=1;resizeParentMax=0;resizeLast=0;collapsible=1;marginBottom=0;whiteSpace=wrap;html=1;rounded=1;strokeColor=#6c8ebf;fillColor=#dae8fc;fontSize=14;" parent="1" vertex="1">
          <mxGeometry x="533.5" y="90" width="190" height="110" as="geometry">
            <mxRectangle x="533.5" y="90" width="120" height="30" as="alternateBounds" />
          </mxGeometry>
        </mxCell>
        <mxCell id="8uDb1hTrpz5iHz1FLqci-11" value="prd_key" style="text;strokeColor=none;fillColor=none;align=left;verticalAlign=middle;spacingLeft=4;spacingRight=4;overflow=hidden;points=[[0,0.5],[1,0.5]];portConstraint=eastwest;rotatable=0;whiteSpace=wrap;html=1;fontSize=14;" parent="8uDb1hTrpz5iHz1FLqci-10" vertex="1">
          <mxGeometry y="30" width="190" height="30" as="geometry" />
        </mxCell>
        <mxCell id="8ZTehYMrkej-1VoAqlrr-7" value="cat_id" style="text;strokeColor=none;fillColor=none;align=left;verticalAlign=middle;spacingLeft=4;spacingRight=4;overflow=hidden;points=[[0,0.5],[1,0.5]];portConstraint=eastwest;rotatable=0;whiteSpace=wrap;html=1;fontSize=14;" parent="8uDb1hTrpz5iHz1FLqci-10" vertex="1">
          <mxGeometry y="60" width="190" height="30" as="geometry" />
        </mxCell>
        <mxCell id="5jU7VtsfLBy8xXooyxDO-1" value="PRODUCT" style="rounded=0;whiteSpace=wrap;html=1;fillColor=#f8cecc;strokeColor=#b85450;fontStyle=1" parent="8uDb1hTrpz5iHz1FLqci-10" vertex="1">
          <mxGeometry y="90" width="190" height="20" as="geometry" />
        </mxCell>
        <mxCell id="8uDb1hTrpz5iHz1FLqci-12" value="Current &amp;amp; Historical Product Information" style="rounded=0;whiteSpace=wrap;html=1;strokeColor=none;" parent="1" vertex="1">
          <mxGeometry x="519.5" y="59" width="220" height="30" as="geometry" />
        </mxCell>
        <mxCell id="8uDb1hTrpz5iHz1FLqci-14" style="edgeStyle=orthogonalEdgeStyle;rounded=0;orthogonalLoop=1;jettySize=auto;html=1;entryX=0;entryY=0.5;entryDx=0;entryDy=0;" parent="1" source="8uDb1hTrpz5iHz1FLqci-3" target="8uDb1hTrpz5iHz1FLqci-11" edge="1">
          <mxGeometry relative="1" as="geometry" />
        </mxCell>
        <mxCell id="8uDb1hTrpz5iHz1FLqci-15" style="edgeStyle=orthogonalEdgeStyle;rounded=0;orthogonalLoop=1;jettySize=auto;html=1;entryX=0;entryY=0.5;entryDx=0;entryDy=0;" parent="1" source="8uDb1hTrpz5iHz1FLqci-13" target="8uDb1hTrpz5iHz1FLqci-8" edge="1">
          <mxGeometry relative="1" as="geometry" />
        </mxCell>
        <mxCell id="8uDb1hTrpz5iHz1FLqci-17" value="erp_cust_az12" style="swimlane;fontStyle=0;childLayout=stackLayout;horizontal=1;startSize=30;horizontalStack=0;resizeParent=1;resizeParentMax=0;resizeLast=0;collapsible=1;marginBottom=0;whiteSpace=wrap;html=1;rounded=1;strokeColor=#d6b656;fillColor=#fff2cc;fontSize=14;" parent="1" vertex="1">
          <mxGeometry x="1073" y="250" width="190" height="100" as="geometry" />
        </mxCell>
        <mxCell id="8uDb1hTrpz5iHz1FLqci-18" value="cid" style="text;strokeColor=none;fillColor=none;align=left;verticalAlign=middle;spacingLeft=4;spacingRight=4;overflow=hidden;points=[[0,0.5],[1,0.5]];portConstraint=eastwest;rotatable=0;whiteSpace=wrap;html=1;fontSize=14;" parent="8uDb1hTrpz5iHz1FLqci-17" vertex="1">
          <mxGeometry y="30" width="190" height="50" as="geometry" />
        </mxCell>
        <mxCell id="5jU7VtsfLBy8xXooyxDO-6" value="CUSTOMER" style="rounded=0;whiteSpace=wrap;html=1;fillColor=#d5e8d4;strokeColor=#82b366;fontStyle=1" parent="8uDb1hTrpz5iHz1FLqci-17" vertex="1">
          <mxGeometry y="80" width="190" height="20" as="geometry" />
        </mxCell>
        <mxCell id="8uDb1hTrpz5iHz1FLqci-20" value="Extra Customer Information (Birthdate)" style="rounded=0;whiteSpace=wrap;html=1;strokeColor=none;" parent="1" vertex="1">
          <mxGeometry x="1070" y="219" width="210" height="30" as="geometry" />
        </mxCell>
        <mxCell id="8uDb1hTrpz5iHz1FLqci-21" style="edgeStyle=orthogonalEdgeStyle;rounded=0;orthogonalLoop=1;jettySize=auto;html=1;entryX=1;entryY=0.5;entryDx=0;entryDy=0;" parent="1" source="8uDb1hTrpz5iHz1FLqci-18" target="8uDb1hTrpz5iHz1FLqci-16" edge="1">
          <mxGeometry relative="1" as="geometry" />
        </mxCell>
        <mxCell id="8uDb1hTrpz5iHz1FLqci-22" value="Source Systems - Data Integration Model &lt;font style=&quot;font-weight: normal; font-size: 14px;&quot;&gt;(Table Relations)&lt;/font&gt;" style="rounded=1;whiteSpace=wrap;html=1;fontSize=18;fontStyle=1" parent="1" vertex="1">
          <mxGeometry x="589" y="-120" width="480" height="60" as="geometry" />
        </mxCell>
        <mxCell id="8uDb1hTrpz5iHz1FLqci-23" value="erp_loc_a101" style="swimlane;fontStyle=0;childLayout=stackLayout;horizontal=1;startSize=30;horizontalStack=0;resizeParent=1;resizeParentMax=0;resizeLast=0;collapsible=1;marginBottom=0;whiteSpace=wrap;html=1;rounded=1;strokeColor=#d6b656;fillColor=#fff2cc;fontSize=14;" parent="1" vertex="1">
          <mxGeometry x="1073" y="423" width="190" height="90" as="geometry" />
        </mxCell>
        <mxCell id="8uDb1hTrpz5iHz1FLqci-24" value="cid" style="text;strokeColor=none;fillColor=none;align=left;verticalAlign=middle;spacingLeft=4;spacingRight=4;overflow=hidden;points=[[0,0.5],[1,0.5]];portConstraint=eastwest;rotatable=0;whiteSpace=wrap;html=1;fontSize=14;" parent="8uDb1hTrpz5iHz1FLqci-23" vertex="1">
          <mxGeometry y="30" width="190" height="40" as="geometry" />
        </mxCell>
        <mxCell id="5jU7VtsfLBy8xXooyxDO-5" value="CUSTOMER" style="rounded=0;whiteSpace=wrap;html=1;fillColor=#d5e8d4;strokeColor=#82b366;fontStyle=1" parent="8uDb1hTrpz5iHz1FLqci-23" vertex="1">
          <mxGeometry y="70" width="190" height="20" as="geometry" />
        </mxCell>
        <mxCell id="8uDb1hTrpz5iHz1FLqci-25" value="Location of Customers (Country)" style="rounded=0;whiteSpace=wrap;html=1;strokeColor=none;" parent="1" vertex="1">
          <mxGeometry x="1072.25" y="392" width="191.5" height="30" as="geometry" />
        </mxCell>
        <mxCell id="8uDb1hTrpz5iHz1FLqci-27" style="edgeStyle=orthogonalEdgeStyle;rounded=0;orthogonalLoop=1;jettySize=auto;html=1;entryX=1;entryY=0.5;entryDx=0;entryDy=0;" parent="1" source="8uDb1hTrpz5iHz1FLqci-24" target="8uDb1hTrpz5iHz1FLqci-16" edge="1">
          <mxGeometry relative="1" as="geometry">
            <mxPoint x="840" y="500" as="targetPoint" />
          </mxGeometry>
        </mxCell>
        <mxCell id="8uDb1hTrpz5iHz1FLqci-28" value="erp_px_cat_g1v2" style="swimlane;fontStyle=0;childLayout=stackLayout;horizontal=1;startSize=30;horizontalStack=0;resizeParent=1;resizeParentMax=0;resizeLast=0;collapsible=1;marginBottom=0;whiteSpace=wrap;html=1;rounded=1;strokeColor=#d6b656;fillColor=#fff2cc;fontSize=14;" parent="1" vertex="1">
          <mxGeometry x="1072" y="90" width="190" height="80" as="geometry" />
        </mxCell>
        <mxCell id="8uDb1hTrpz5iHz1FLqci-29" value="id" style="text;strokeColor=none;fillColor=none;align=left;verticalAlign=middle;spacingLeft=4;spacingRight=4;overflow=hidden;points=[[0,0.5],[1,0.5]];portConstraint=eastwest;rotatable=0;whiteSpace=wrap;html=1;fontSize=14;" parent="8uDb1hTrpz5iHz1FLqci-28" vertex="1">
          <mxGeometry y="30" width="190" height="30" as="geometry" />
        </mxCell>
        <mxCell id="5jU7VtsfLBy8xXooyxDO-2" value="PRODUCT" style="rounded=0;whiteSpace=wrap;html=1;fillColor=#f8cecc;strokeColor=#b85450;fontStyle=1" parent="8uDb1hTrpz5iHz1FLqci-28" vertex="1">
          <mxGeometry y="60" width="190" height="20" as="geometry" />
        </mxCell>
        <mxCell id="8uDb1hTrpz5iHz1FLqci-30" value="Product Categories" style="rounded=0;whiteSpace=wrap;html=1;strokeColor=none;" parent="1" vertex="1">
          <mxGeometry x="1099" y="59" width="132" height="30" as="geometry" />
        </mxCell>
        <mxCell id="8uDb1hTrpz5iHz1FLqci-33" value="CRM" style="rounded=1;whiteSpace=wrap;html=1;fontSize=18;fontStyle=1;fillColor=#CCE5FF;strokeColor=#7EA6E0;" parent="1" vertex="1">
          <mxGeometry x="407" y="-41" width="125" height="40" as="geometry" />
        </mxCell>
        <mxCell id="8uDb1hTrpz5iHz1FLqci-35" value="ERP" style="rounded=1;whiteSpace=wrap;html=1;fontSize=18;fontStyle=1;fillColor=#fff2cc;strokeColor=#d6b656;" parent="1" vertex="1">
          <mxGeometry x="1094" y="-41" width="125" height="40" as="geometry" />
        </mxCell>
        <mxCell id="8uDb1hTrpz5iHz1FLqci-42" style="edgeStyle=orthogonalEdgeStyle;rounded=0;orthogonalLoop=1;jettySize=auto;html=1;entryX=1;entryY=0.5;entryDx=0;entryDy=0;" parent="1" source="8uDb1hTrpz5iHz1FLqci-29" target="8ZTehYMrkej-1VoAqlrr-7" edge="1">
          <mxGeometry relative="1" as="geometry" />
        </mxCell>
      </root>
    </mxGraphModel>
  </diagram>
</mxfile>
